<svg width="32" height="32" viewBox="0 0 32 32" fill="none" xmlns="http://www.w3.org/2000/svg">
<path d="M0 10.9089V2.18179C0 0.981804 0.981804 0 2.18179 0H10.9089C11.3085 0 11.6357 0.327268 11.6357 0.726797C11.6357 1.12633 11.3085 1.45359 10.9089 1.45359H2.18179C1.78226 1.45359 1.45499 1.78086 1.45499 2.18039V10.9075C1.45499 11.3071 1.12772 11.6343 0.728193 11.6343C0.328664 11.6343 0.00139624 11.3071 0.00139624 10.9075L0 10.9089ZM31.2718 20.3629C30.8723 20.3629 30.545 20.6901 30.545 21.0897V29.8168C30.545 30.2163 30.2177 30.5436 29.8182 30.5436H21.0911C20.6915 30.5436 20.3643 30.8709 20.3643 31.2704C20.3643 31.6699 20.6915 31.9972 21.0911 31.9972H29.8182C31.0182 31.9972 32 31.0154 32 29.8154V21.0883C32 20.6887 31.6727 20.3615 31.2732 20.3615L31.2718 20.3629ZM10.9089 30.545H2.18179C1.78226 30.545 1.45499 30.2177 1.45499 29.8182V21.0911C1.45499 20.6915 1.12772 20.3643 0.728193 20.3643C0.328664 20.3643 0.00139624 20.6915 0.00139624 21.0911V29.8182C0.00139624 31.0182 0.9832 32 2.18318 32H10.9103C11.3099 32 11.6371 31.6727 11.6371 31.2732C11.6371 30.8737 11.3099 30.5464 10.9103 30.5464L10.9089 30.545ZM29.8168 0H21.0897C20.6901 0 20.3629 0.327268 20.3629 0.726797C20.3629 1.12633 20.6901 1.45359 21.0897 1.45359H29.8168C30.2163 1.45359 30.5436 1.78086 30.5436 2.18039V10.9075C30.5436 11.3071 30.8709 11.6343 31.2704 11.6343C31.6699 11.6343 31.9972 11.3071 31.9972 10.9075L31.9986 2.18179C31.9986 0.981804 31.0168 0 29.8168 0ZM23.1269 21.3815C22.8869 21.0611 22.4288 20.9956 22.1083 21.2356C21.0979 21.9992 18.9515 23.2715 15.9993 23.2715C14.7339 23.2715 12.2536 23.0097 9.8903 21.2356C9.56985 20.9956 9.11166 21.0611 8.87167 21.3815C8.63167 21.702 8.69712 22.1601 9.01757 22.4001C11.7162 24.4224 14.5523 24.7278 15.9993 24.7278C19.3743 24.7278 21.8248 23.2729 22.981 22.4001C23.3015 22.1601 23.3669 21.702 23.1269 21.3815ZM23.2715 13.0907V9.45394C23.2715 9.05441 22.9442 8.72715 22.5447 8.72715C22.1452 8.72715 21.8179 9.05441 21.8179 9.45394V13.0907C21.8179 13.4902 22.1452 13.8175 22.5447 13.8175C22.9442 13.8175 23.2715 13.4902 23.2715 13.0907ZM12.3625 18.1811H13.8175C15.4253 18.1811 16.7261 16.8788 16.7261 15.2725V9.49095C16.7261 9.09142 16.3989 8.76415 15.9993 8.76415C15.5998 8.76415 15.2725 9.09142 15.2725 9.49095V15.2725C15.2725 16.073 14.618 16.7275 13.8175 16.7275H12.3625C11.963 16.7275 11.6358 17.0548 11.6358 17.4543C11.6358 17.8538 11.963 18.1811 12.3625 18.1811ZM8.72717 9.45394V13.0907C8.72717 13.4902 9.05443 13.8175 9.45396 13.8175C9.85349 13.8175 10.1808 13.4902 10.1808 13.0907V9.45394C10.1808 9.05441 9.85349 8.72715 9.45396 8.72715C9.05443 8.72715 8.72717 9.05441 8.72717 9.45394Z" fill="#3366B7"/>
</svg>
