<svg width="32" height="32" viewBox="0 0 32 32" fill="none" xmlns="http://www.w3.org/2000/svg">
<path d="M24.0009 8.00033C23.1875 8.00033 22.4409 7.53366 22.0675 6.81366L21.1075 4.88033C20.4942 3.66699 18.8942 2.66699 17.5342 2.66699H14.4809C13.1075 2.66699 11.5075 3.66699 10.8942 4.88033L9.93421 6.81366C9.56087 7.53366 8.81421 8.00033 8.00087 8.00033C5.10754 8.00033 2.81421 10.4403 3.00087 13.3203L3.69421 24.3337C3.85421 27.0803 5.33421 29.3337 9.01421 29.3337H22.9875C26.6675 29.3337 28.1342 27.0803 28.3075 24.3337L29.0009 13.3203C29.1875 10.4403 26.8942 8.00033 24.0009 8.00033ZM14.0009 9.66699H18.0009C18.5475 9.66699 19.0009 10.1203 19.0009 10.667C19.0009 11.2137 18.5475 11.667 18.0009 11.667H14.0009C13.4542 11.667 13.0009 11.2137 13.0009 10.667C13.0009 10.1203 13.4542 9.66699 14.0009 9.66699ZM16.0009 24.1603C13.5209 24.1603 11.4942 22.147 11.4942 19.6537C11.4942 17.1603 13.5075 15.147 16.0009 15.147C18.4942 15.147 20.5075 17.1603 20.5075 19.6537C20.5075 22.147 18.4809 24.1603 16.0009 24.1603Z" fill="white"/>
</svg>
