<svg width="24" height="24" viewBox="0 0 24 24" fill="none" xmlns="http://www.w3.org/2000/svg">
<path d="M6 3.5H18C19.937 3.5 21.4999 5.05926 21.5 6.96973V17.0303C21.4999 18.9407 19.937 20.5 18 20.5H6C4.06296 20.5 2.50015 18.9407 2.5 17.0303V6.96973C2.50015 5.05926 4.06296 3.5 6 3.5ZM9.34668 12.6123C8.78553 12.5594 8.20373 12.5594 7.64258 12.6123C5.72541 12.7949 4.19708 14.3118 4.00293 16.2295L4.00195 16.2373L4.00098 16.2441C3.98117 16.5214 4.07912 16.7945 4.25879 16.9941C4.44926 17.2058 4.72695 17.3203 5 17.3203H12C12.2731 17.3203 12.5507 17.2058 12.7412 16.9941C12.92 16.7955 13.0274 16.5103 12.9844 16.209C12.7909 14.2979 11.2545 12.794 9.34766 12.6123H9.34668ZM17 14.75C16.3139 14.75 15.75 15.3139 15.75 16C15.75 16.6861 16.3139 17.25 17 17.25H19C19.6861 17.25 20.25 16.6861 20.25 16C20.25 15.3139 19.6861 14.75 19 14.75H17ZM15 10.75C14.3139 10.75 13.75 11.3139 13.75 12C13.75 12.6861 14.3139 13.25 15 13.25H19C19.6861 13.25 20.25 12.6861 20.25 12C20.25 11.3139 19.6861 10.75 19 10.75H15ZM8.5 6.66992C6.95386 6.66992 5.69043 7.93433 5.69043 9.48047C5.69069 11.0264 6.95401 12.29 8.5 12.29C10.046 12.29 11.3093 11.0264 11.3096 9.48047C11.3096 7.93433 10.0461 6.66992 8.5 6.66992ZM14 6.75C13.3139 6.75 12.75 7.31386 12.75 8C12.75 8.68614 13.3139 9.25 14 9.25H19C19.6861 9.25 20.25 8.68614 20.25 8C20.25 7.31386 19.6861 6.75 19 6.75H14Z" fill="#012F85" stroke="#012F85"/>
</svg>
